<?xml version="1.0" encoding="utf-8"?>
<svg xmlns="http://www.w3.org/2000/svg"
     style="margin: auto; background: none; display: block; z-index: 1; position: relative; shape-rendering: auto;"
     width="1920" height="985" preserveAspectRatio="xMidYMid" viewBox="0 0 1920 985">
    <g transform="translate(960,492.5) scale(1,1) translate(-960,-492.5)">
        <path
            d="M-100 499.63C-65.7 498.38 -63.87 507.16 -31.61 507.16S2.68 505.69 36.77 505.69S72.57 503.46 105.16 503.46S139.55 502.25 173.55 502.25S209.77 497.94 241.94 497.94S279.06 483.57 310.32 483.57S345.71 485.47 378.71 485.47S417.01 476.88 447.1 476.88S484.62 513.59 515.48 513.59S551.76 473.91 583.87 473.91S622.03 510.21 652.26 510.21S687.44 482.65 720.65 482.65S757.28 474.32 789.03 474.32S826.42 500.8 857.42 500.8S895.92 510.82 925.81 510.82S960.34 484 994.19 484S1030.1 489.37 1062.58 489.37S1097.08 477.62 1130.97 477.62S1168.88 487.36 1199.35 487.36S1234.78 508.23 1267.74 508.23S1303.96 488.79 1336.13 488.79S1373.22 501.45 1404.52 501.45S1439.68 500.47 1472.9 500.47S1508.01 505.4 1541.29 505.4S1579.76 477.3 1609.68 477.3S1647.8 503.24 1678.06 503.24S1713.32 503.22 1746.45 503.22S1784.14 477.11 1814.84 477.11S1850.62 486.83 1883.23 486.83S1917.62 515.61 1951.61 515.61S1988.62 488.66 2020 488.66S2056.34 481.97 2088.39 481.97L2020 985 L-100 985 Z"
            fill="#2f363e" stroke-width="0">
            <animate attributeName="d" dur="20.51282051282051s" repeatCount="indefinite"
                     values="M-100 499.63C-65.7 498.38 -63.87 507.16 -31.61 507.16S2.68 505.69 36.77 505.69S72.57 503.46 105.16 503.46S139.55 502.25 173.55 502.25S209.77 497.94 241.94 497.94S279.06 483.57 310.32 483.57S345.71 485.47 378.71 485.47S417.01 476.88 447.1 476.88S484.62 513.59 515.48 513.59S551.76 473.91 583.87 473.91S622.03 510.21 652.26 510.21S687.44 482.65 720.65 482.65S757.28 474.32 789.03 474.32S826.42 500.8 857.42 500.8S895.92 510.82 925.81 510.82S960.34 484 994.19 484S1030.1 489.37 1062.58 489.37S1097.08 477.62 1130.97 477.62S1168.88 487.36 1199.35 487.36S1234.78 508.23 1267.74 508.23S1303.96 488.79 1336.13 488.79S1373.22 501.45 1404.52 501.45S1439.68 500.47 1472.9 500.47S1508.01 505.4 1541.29 505.4S1579.76 477.3 1609.68 477.3S1647.8 503.24 1678.06 503.24S1713.32 503.22 1746.45 503.22S1784.14 477.11 1814.84 477.11S1850.62 486.83 1883.23 486.83S1917.62 515.61 1951.61 515.61S1988.62 488.66 2020 488.66S2056.34 481.97 2088.39 481.97L2020 985 L-100 985 Z;M-100 477.37C-65.32 516.2 -64.71 494.78 -31.61 494.78S2.64 490.23 36.77 490.23S71.85 480.06 105.16 480.06S139.98 479.54 173.55 479.54S210.01 498.61 241.94 498.61S279.94 480.02 310.32 480.02S346.42 493.42 378.71 493.42S415.88 494.93 447.1 494.93S483.76 513.58 515.48 513.58S550.99 473.64 583.87 473.64S621.8 508.55 652.26 508.55S688.2 490.25 720.65 490.25S756.07 496.2 789.03 496.2S823.9 478.94 857.42 478.94S893.41 491.73 925.81 491.73S961.39 480.79 994.19 480.79S1028.4 477.58 1062.58 477.58S1098.8 477.99 1130.97 477.99S1167.27 510.38 1199.35 510.38S1237.98 507.64 1267.74 507.64S1306.29 488.79 1336.13 488.79S1372.53 496.77 1404.52 496.77S1442.54 485.82 1472.9 485.82S1509.54 474.67 1541.29 474.67S1578.66 508.63 1609.68 508.63S1646.7 491.44 1678.06 491.44S1713.35 515.62 1746.45 515.62S1783.23 475.91 1814.84 475.91S1852.51 495.2 1883.23 495.2S1919.57 497.2 1951.61 497.2S1987.31 482.26 2020 482.26S2054.6 481.93 2088.39 481.93L2020 985 L-100 985 Z;M-100 499.63C-65.7 498.38 -63.87 507.16 -31.61 507.16S2.68 505.69 36.77 505.69S72.57 503.46 105.16 503.46S139.55 502.25 173.55 502.25S209.77 497.94 241.94 497.94S279.06 483.57 310.32 483.57S345.71 485.47 378.71 485.47S417.01 476.88 447.1 476.88S484.62 513.59 515.48 513.59S551.76 473.91 583.87 473.91S622.03 510.21 652.26 510.21S687.44 482.65 720.65 482.65S757.28 474.32 789.03 474.32S826.42 500.8 857.42 500.8S895.92 510.82 925.81 510.82S960.34 484 994.19 484S1030.1 489.37 1062.58 489.37S1097.08 477.62 1130.97 477.62S1168.88 487.36 1199.35 487.36S1234.78 508.23 1267.74 508.23S1303.96 488.79 1336.13 488.79S1373.22 501.45 1404.52 501.45S1439.68 500.47 1472.9 500.47S1508.01 505.4 1541.29 505.4S1579.76 477.3 1609.68 477.3S1647.8 503.24 1678.06 503.24S1713.32 503.22 1746.45 503.22S1784.14 477.11 1814.84 477.11S1850.62 486.83 1883.23 486.83S1917.62 515.61 1951.61 515.61S1988.62 488.66 2020 488.66S2056.34 481.97 2088.39 481.97L2020 985 L-100 985 Z"></animate>
            <animateTransform attributeName="transform" type="translate" dur="20.51282051282051s" begin="0s"
                              repeatCount="indefinite" values="0;10;0" calcMode="spline"
                              keySplines="0.3 0 0.7 1;0.3 0 0.7 1"></animateTransform>
        </path>
        <path
            d="M-100 523.68C-64.49 535.68 -60.63 554.8 -29.33 554.8S8.8 547.8 41.33 547.8S77.66 522.54 112 522.54S150.54 529.21 182.67 529.21S220.73 567.03 253.33 567.03S289.64 548.67 324 548.67S363.73 543.25 394.67 543.25S432.63 542.55 465.33 542.55S502.16 531.3 536 531.3S574.46 532.86 606.67 532.86S645.7 560.75 677.33 560.75S713.98 541.09 748 541.09S785.27 535.72 818.67 535.72S856.37 529.32 889.33 529.32S927.42 559.12 960 559.12S996 528.39 1030.67 528.39S1069.16 541.29 1101.33 541.29S1138.48 528.86 1172 528.86S1211.65 542.88 1242.67 542.88S1278.39 569.03 1313.33 569.03S1350.12 541.92 1384 541.92S1423.2 525.72 1454.67 525.72S1492.3 540.87 1525.33 540.87S1564.81 554.72 1596 554.72S1632.08 547.23 1666.67 547.23S1703.26 556.48 1737.33 556.48S1774 553.4 1808 553.4S1846.1 526.43 1878.67 526.43S1916.18 559.22 1949.33 559.22S1985.65 555.71 2020 555.71S2057.19 562.15 2090.67 562.15L2020 985 L-100 985 Z"
            fill="#303f4b" stroke-width="0">
            <animate attributeName="d" dur="17.94871794871795s" repeatCount="indefinite"
                     values="M-100 523.68C-64.49 535.68 -60.63 554.8 -29.33 554.8S8.8 547.8 41.33 547.8S77.66 522.54 112 522.54S150.54 529.21 182.67 529.21S220.73 567.03 253.33 567.03S289.64 548.67 324 548.67S363.73 543.25 394.67 543.25S432.63 542.55 465.33 542.55S502.16 531.3 536 531.3S574.46 532.86 606.67 532.86S645.7 560.75 677.33 560.75S713.98 541.09 748 541.09S785.27 535.72 818.67 535.72S856.37 529.32 889.33 529.32S927.42 559.12 960 559.12S996 528.39 1030.67 528.39S1069.16 541.29 1101.33 541.29S1138.48 528.86 1172 528.86S1211.65 542.88 1242.67 542.88S1278.39 569.03 1313.33 569.03S1350.12 541.92 1384 541.92S1423.2 525.72 1454.67 525.72S1492.3 540.87 1525.33 540.87S1564.81 554.72 1596 554.72S1632.08 547.23 1666.67 547.23S1703.26 556.48 1737.33 556.48S1774 553.4 1808 553.4S1846.1 526.43 1878.67 526.43S1916.18 559.22 1949.33 559.22S1985.65 555.71 2020 555.71S2057.19 562.15 2090.67 562.15L2020 985 L-100 985 Z;M-100 532.21C-60.84 543.83 -63.36 531.17 -29.33 531.17S7.87 541.96 41.33 541.96S81 531.53 112 531.53S149.03 526.07 182.67 526.07S218.6 555.61 253.33 555.61S289.48 561.05 324 561.05S359.81 540.78 394.67 540.78S433.43 539.19 465.33 539.19S502.06 546.24 536 546.24S575.63 543.05 606.67 543.05S642.75 530.99 677.33 530.99S716.91 520.42 748 520.42S784.72 557.41 818.67 557.41S856.44 548.81 889.33 548.81S928.72 562.59 960 562.59S995.55 552.49 1030.67 552.49S1066.14 571.57 1101.33 571.57S1139.39 540.78 1172 540.78S1207.45 535.18 1242.67 535.18S1280.83 533.44 1313.33 533.44S1350.84 567.27 1384 567.27S1422.56 520.09 1454.67 520.09S1491.22 569.77 1525.33 569.77S1564.18 571.75 1596 571.75S1631.42 538.11 1666.67 538.11S1705.72 558.12 1737.33 558.12S1775.61 534.97 1808 534.97S1844.08 561.75 1878.67 561.75S1918.38 545.58 1949.33 545.58S1986.37 529.54 2020 529.54S2055.37 555.21 2090.67 555.21L2020 985 L-100 985 Z;M-100 523.68C-64.49 535.68 -60.63 554.8 -29.33 554.8S8.8 547.8 41.33 547.8S77.66 522.54 112 522.54S150.54 529.21 182.67 529.21S220.73 567.03 253.33 567.03S289.64 548.67 324 548.67S363.73 543.25 394.67 543.25S432.63 542.55 465.33 542.55S502.16 531.3 536 531.3S574.46 532.86 606.67 532.86S645.7 560.75 677.33 560.75S713.98 541.09 748 541.09S785.27 535.72 818.67 535.72S856.37 529.32 889.33 529.32S927.42 559.12 960 559.12S996 528.39 1030.67 528.39S1069.16 541.29 1101.33 541.29S1138.48 528.86 1172 528.86S1211.65 542.88 1242.67 542.88S1278.39 569.03 1313.33 569.03S1350.12 541.92 1384 541.92S1423.2 525.72 1454.67 525.72S1492.3 540.87 1525.33 540.87S1564.81 554.72 1596 554.72S1632.08 547.23 1666.67 547.23S1703.26 556.48 1737.33 556.48S1774 553.4 1808 553.4S1846.1 526.43 1878.67 526.43S1916.18 559.22 1949.33 559.22S1985.65 555.71 2020 555.71S2057.19 562.15 2090.67 562.15L2020 985 L-100 985 Z"></animate>
            <animateTransform attributeName="transform" type="translate" dur="17.94871794871795s"
                              begin="-2.2435897435897436s" repeatCount="indefinite" values="0;10;0" calcMode="spline"
                              keySplines="0.3 0 0.7 1;0.3 0 0.7 1"></animateTransform>
        </path>
        <path
            d="M-100 591.89C-59.86 608.96 -62.97 615.85 -26.9 615.85S13.85 570.63 46.21 570.63S84.39 621.26 119.31 621.26S155.87 597.24 192.41 597.24S231.29 590.82 265.52 590.82S305.05 576.07 338.62 576.07S377.17 623.76 411.72 623.76S449.62 578.18 484.83 578.18S524.61 602.82 557.93 602.82S597.94 604.33 631.03 604.33S671.47 630.52 704.14 630.52S741.55 586.71 777.24 586.71S816.02 590.5 850.34 590.5S889.5 587.45 923.45 587.45S964.01 606.09 996.55 606.09S1036.55 568.67 1069.66 568.67S1110.01 612.43 1142.76 612.43S1179.8 588.03 1215.86 588.03S1253.27 616.43 1288.97 616.43S1329.28 589.01 1362.07 589.01S1402.16 622.2 1435.17 622.2S1473.29 618.19 1508.28 618.19S1547.03 570.36 1581.38 570.36S1622.24 569.35 1654.48 569.35S1695.03 617.36 1727.59 617.36S1766.86 593.59 1800.69 593.59S1840.67 610.23 1873.79 610.23S1913.28 575.94 1946.9 575.94S1986.4 612.17 2020 612.17S2057.84 593.53 2093.1 593.53L2020 985 L-100 985 Z"
            fill="#2e4957" stroke-width="0">
            <animate attributeName="d" dur="15.384615384615383s" repeatCount="indefinite"
                     values="M-100 591.89C-59.86 608.96 -62.97 615.85 -26.9 615.85S13.85 570.63 46.21 570.63S84.39 621.26 119.31 621.26S155.87 597.24 192.41 597.24S231.29 590.82 265.52 590.82S305.05 576.07 338.62 576.07S377.17 623.76 411.72 623.76S449.62 578.18 484.83 578.18S524.61 602.82 557.93 602.82S597.94 604.33 631.03 604.33S671.47 630.52 704.14 630.52S741.55 586.71 777.24 586.71S816.02 590.5 850.34 590.5S889.5 587.45 923.45 587.45S964.01 606.09 996.55 606.09S1036.55 568.67 1069.66 568.67S1110.01 612.43 1142.76 612.43S1179.8 588.03 1215.86 588.03S1253.27 616.43 1288.97 616.43S1329.28 589.01 1362.07 589.01S1402.16 622.2 1435.17 622.2S1473.29 618.19 1508.28 618.19S1547.03 570.36 1581.38 570.36S1622.24 569.35 1654.48 569.35S1695.03 617.36 1727.59 617.36S1766.86 593.59 1800.69 593.59S1840.67 610.23 1873.79 610.23S1913.28 575.94 1946.9 575.94S1986.4 612.17 2020 612.17S2057.84 593.53 2093.1 593.53L2020 985 L-100 985 Z;M-100 597.22C-59.61 576.82 -63.12 611.17 -26.9 611.17S13.26 606.66 46.21 606.66S83.98 608.77 119.31 608.77S159.88 599 192.41 599S230.81 608.01 265.52 608.01S302.26 616.73 338.62 616.73S378.97 606.55 411.72 606.55S452.36 596.65 484.83 596.65S522.42 598.57 557.93 598.57S597.57 596.58 631.03 596.58S671.73 610.4 704.14 610.4S741.75 568.83 777.24 568.83S814.92 608.24 850.34 608.24S889.7 603.98 923.45 603.98S961.42 597.69 996.55 597.69S1035.32 575.71 1069.66 575.71S1106.78 611.94 1142.76 611.94S1181.53 591.42 1215.86 591.42S1256.41 600.71 1288.97 600.71S1327.86 591.66 1362.07 591.66S1400.41 630.75 1435.17 630.75S1473.87 566.74 1508.28 566.74S1548.67 590.96 1581.38 590.96S1620.07 629.37 1654.48 629.37S1691.31 629.7 1727.59 629.7S1765.81 576.98 1800.69 576.98S1840.39 593.6 1873.79 593.6S1912.74 627.22 1946.9 627.22S1986.15 601.2 2020 601.2S2058.43 593.13 2093.1 593.13L2020 985 L-100 985 Z;M-100 591.89C-59.86 608.96 -62.97 615.85 -26.9 615.85S13.85 570.63 46.21 570.63S84.39 621.26 119.31 621.26S155.87 597.24 192.41 597.24S231.29 590.82 265.52 590.82S305.05 576.07 338.62 576.07S377.17 623.76 411.72 623.76S449.62 578.18 484.83 578.18S524.61 602.82 557.93 602.82S597.94 604.33 631.03 604.33S671.47 630.52 704.14 630.52S741.55 586.71 777.24 586.71S816.02 590.5 850.34 590.5S889.5 587.45 923.45 587.45S964.01 606.09 996.55 606.09S1036.55 568.67 1069.66 568.67S1110.01 612.43 1142.76 612.43S1179.8 588.03 1215.86 588.03S1253.27 616.43 1288.97 616.43S1329.28 589.01 1362.07 589.01S1402.16 622.2 1435.17 622.2S1473.29 618.19 1508.28 618.19S1547.03 570.36 1581.38 570.36S1622.24 569.35 1654.48 569.35S1695.03 617.36 1727.59 617.36S1766.86 593.59 1800.69 593.59S1840.67 610.23 1873.79 610.23S1913.28 575.94 1946.9 575.94S1986.4 612.17 2020 612.17S2057.84 593.53 2093.1 593.53L2020 985 L-100 985 Z"></animate>
            <animateTransform attributeName="transform" type="translate" dur="15.384615384615383s"
                              begin="-3.846153846153846s" repeatCount="indefinite" values="0;10;0" calcMode="spline"
                              keySplines="0.3 0 0.7 1;0.3 0 0.7 1"></animateTransform>
        </path>
        <path
            d="M-100 683.59C-58.37 653.81 -60.39 657.75 -24.29 657.75S16.62 637.13 51.43 637.13S91.44 663.06 127.14 663.06S165.8 632.71 202.86 632.71S243.08 640.42 278.57 640.42S318.8 687.8 354.29 687.8S393.07 655.37 430 655.37S471.79 665.9 505.71 665.9S547.26 654.57 581.43 654.57S619.84 646.39 657.14 646.39S697.31 662.23 732.86 662.23S773.28 654.8 808.57 654.8S849.93 675.64 884.29 675.64S926.36 675.93 960 675.93S1002.15 655.49 1035.71 655.49S1077.22 616.54 1111.43 616.54S1149.92 660.49 1187.14 660.49S1227.63 646.95 1262.86 646.95S1303.24 677.57 1338.57 677.57S1377.02 687.09 1414.29 687.09S1456.09 638.97 1490 638.97S1528.44 634.62 1565.71 634.62S1607.75 646.93 1641.43 646.93S1683.62 652.15 1717.14 652.15S1757.51 659.7 1792.86 659.7S1833.74 627.38 1868.57 627.38S1910.8 637.12 1944.29 637.12S1985.43 652.36 2020 652.36S2058.92 664.34 2095.71 664.34L2020 985 L-100 985 Z"
            fill="#295461" stroke-width="0">
            <animate attributeName="d" dur="12.82051282051282s" repeatCount="indefinite"
                     values="M-100 683.59C-58.37 653.81 -60.39 657.75 -24.29 657.75S16.62 637.13 51.43 637.13S91.44 663.06 127.14 663.06S165.8 632.71 202.86 632.71S243.08 640.42 278.57 640.42S318.8 687.8 354.29 687.8S393.07 655.37 430 655.37S471.79 665.9 505.71 665.9S547.26 654.57 581.43 654.57S619.84 646.39 657.14 646.39S697.31 662.23 732.86 662.23S773.28 654.8 808.57 654.8S849.93 675.64 884.29 675.64S926.36 675.93 960 675.93S1002.15 655.49 1035.71 655.49S1077.22 616.54 1111.43 616.54S1149.92 660.49 1187.14 660.49S1227.63 646.95 1262.86 646.95S1303.24 677.57 1338.57 677.57S1377.02 687.09 1414.29 687.09S1456.09 638.97 1490 638.97S1528.44 634.62 1565.71 634.62S1607.75 646.93 1641.43 646.93S1683.62 652.15 1717.14 652.15S1757.51 659.7 1792.86 659.7S1833.74 627.38 1868.57 627.38S1910.8 637.12 1944.29 637.12S1985.43 652.36 2020 652.36S2058.92 664.34 2095.71 664.34L2020 985 L-100 985 Z;M-100 622.07C-61.06 626.77 -60.45 669.88 -24.29 669.88S14.7 631.37 51.43 631.37S93.67 633.5 127.14 633.5S167 652.07 202.86 652.07S243.95 686.14 278.57 686.14S319.58 629.94 354.29 629.94S396.3 675.12 430 675.12S469.68 655.2 505.71 655.2S547.29 680.07 581.43 680.07S620.38 616.65 657.14 616.65S697.54 655.16 732.86 655.16S773.5 631.26 808.57 631.26S847.07 657.48 884.29 657.48S925.24 628.18 960 628.18S1001.52 662.22 1035.71 662.22S1074.54 649.02 1111.43 649.02S1153.17 676.62 1187.14 676.62S1228.24 650.99 1262.86 650.99S1303.65 654.61 1338.57 654.61S1378.36 613.37 1414.29 613.37S1455.97 683.63 1490 683.63S1528.87 636.1 1565.71 636.1S1607.95 675.9 1641.43 675.9S1682.37 619.52 1717.14 619.52S1756.26 642.61 1792.86 642.61S1832.3 641.02 1868.57 641.02S1907.22 666.1 1944.29 666.1S1982.83 618.39 2020 618.39S2061.65 663.11 2095.71 663.11L2020 985 L-100 985 Z;M-100 683.59C-58.37 653.81 -60.39 657.75 -24.29 657.75S16.62 637.13 51.43 637.13S91.44 663.06 127.14 663.06S165.8 632.71 202.86 632.71S243.08 640.42 278.57 640.42S318.8 687.8 354.29 687.8S393.07 655.37 430 655.37S471.79 665.9 505.71 665.9S547.26 654.57 581.43 654.57S619.84 646.39 657.14 646.39S697.31 662.23 732.86 662.23S773.28 654.8 808.57 654.8S849.93 675.64 884.29 675.64S926.36 675.93 960 675.93S1002.15 655.49 1035.71 655.49S1077.22 616.54 1111.43 616.54S1149.92 660.49 1187.14 660.49S1227.63 646.95 1262.86 646.95S1303.24 677.57 1338.57 677.57S1377.02 687.09 1414.29 687.09S1456.09 638.97 1490 638.97S1528.44 634.62 1565.71 634.62S1607.75 646.93 1641.43 646.93S1683.62 652.15 1717.14 652.15S1757.51 659.7 1792.86 659.7S1833.74 627.38 1868.57 627.38S1910.8 637.12 1944.29 637.12S1985.43 652.36 2020 652.36S2058.92 664.34 2095.71 664.34L2020 985 L-100 985 Z"></animate>
            <animateTransform attributeName="transform" type="translate" dur="12.82051282051282s"
                              begin="-4.8076923076923075s" repeatCount="indefinite" values="0;10;0" calcMode="spline"
                              keySplines="0.3 0 0.7 1;0.3 0 0.7 1"></animateTransform>
        </path>
        <path
            d="M-100 670.21C-59.6 692.55 -56.97 730.4 -21.48 730.4S21.38 697.7 57.04 697.7S100.24 709.39 135.56 709.39S176.61 681.89 214.07 681.89S255.43 660.28 292.59 660.28S333.16 670.92 371.11 670.92S414.21 691.03 449.63 691.03S493.24 688.84 528.15 688.84S569.35 746.13 606.67 746.13S648.9 669.25 685.19 669.25S727.12 720.62 763.7 720.62S805.02 698.86 842.22 698.86S882.63 678.1 920.74 678.1S963.54 693.21 999.26 693.21S1041.21 730.64 1077.78 730.64S1117.69 660.53 1156.3 660.53S1197.93 741.79 1234.81 741.79S1274.24 690.82 1313.33 690.82S1354.7 736.85 1391.85 736.85S1433.94 675.41 1470.37 675.41S1512.13 708.77 1548.89 708.77S1591.78 705.49 1627.41 705.49S1669.31 730.89 1705.93 730.89S1745.3 663.57 1784.44 663.57S1825.15 668.92 1862.96 668.92S1905.42 677.74 1941.48 677.74S1985.04 737.81 2020 737.81S2059.93 676.62 2098.52 676.62L2020 985 L-100 985 Z"
            fill="#225f6a" stroke-width="0">
            <animate attributeName="d" dur="10.256410256410255s" repeatCount="indefinite"
                     values="M-100 670.21C-59.6 692.55 -56.97 730.4 -21.48 730.4S21.38 697.7 57.04 697.7S100.24 709.39 135.56 709.39S176.61 681.89 214.07 681.89S255.43 660.28 292.59 660.28S333.16 670.92 371.11 670.92S414.21 691.03 449.63 691.03S493.24 688.84 528.15 688.84S569.35 746.13 606.67 746.13S648.9 669.25 685.19 669.25S727.12 720.62 763.7 720.62S805.02 698.86 842.22 698.86S882.63 678.1 920.74 678.1S963.54 693.21 999.26 693.21S1041.21 730.64 1077.78 730.64S1117.69 660.53 1156.3 660.53S1197.93 741.79 1234.81 741.79S1274.24 690.82 1313.33 690.82S1354.7 736.85 1391.85 736.85S1433.94 675.41 1470.37 675.41S1512.13 708.77 1548.89 708.77S1591.78 705.49 1627.41 705.49S1669.31 730.89 1705.93 730.89S1745.3 663.57 1784.44 663.57S1825.15 668.92 1862.96 668.92S1905.42 677.74 1941.48 677.74S1985.04 737.81 2020 737.81S2059.93 676.62 2098.52 676.62L2020 985 L-100 985 Z;M-100 719.1C-57.98 704.72 -57.02 736.12 -21.48 736.12S20.45 710.3 57.04 710.3S97.8 740.79 135.56 740.79S175.19 695.6 214.07 695.6S255.53 746.43 292.59 746.43S336.17 674.86 371.11 674.86S414.12 724.08 449.63 724.08S491.6 717.87 528.15 717.87S570.86 724.59 606.67 724.59S646.49 675.75 685.19 675.75S724.63 708.04 763.7 708.04S805.35 728.21 842.22 728.21S883.24 701.86 920.74 701.86S962 718.27 999.26 718.27S1041.5 737.32 1077.78 737.32S1118.85 694.35 1156.3 694.35S1199.08 746.43 1234.81 746.43S1276.8 675.57 1313.33 675.57S1353.92 715.59 1391.85 715.59S1432.71 673.93 1470.37 673.93S1514.04 727.27 1548.89 727.27S1589.61 710.16 1627.41 710.16S1668.85 743.77 1705.93 743.77S1748.28 669.02 1784.44 669.02S1828.09 709.22 1862.96 709.22S1903.26 684.02 1941.48 684.02S1982.28 724.1 2020 724.1S2061.5 689.54 2098.52 689.54L2020 985 L-100 985 Z;M-100 670.21C-59.6 692.55 -56.97 730.4 -21.48 730.4S21.38 697.7 57.04 697.7S100.24 709.39 135.56 709.39S176.61 681.89 214.07 681.89S255.43 660.28 292.59 660.28S333.16 670.92 371.11 670.92S414.21 691.03 449.63 691.03S493.24 688.84 528.15 688.84S569.35 746.13 606.67 746.13S648.9 669.25 685.19 669.25S727.12 720.62 763.7 720.62S805.02 698.86 842.22 698.86S882.63 678.1 920.74 678.1S963.54 693.21 999.26 693.21S1041.21 730.64 1077.78 730.64S1117.69 660.53 1156.3 660.53S1197.93 741.79 1234.81 741.79S1274.24 690.82 1313.33 690.82S1354.7 736.85 1391.85 736.85S1433.94 675.41 1470.37 675.41S1512.13 708.77 1548.89 708.77S1591.78 705.49 1627.41 705.49S1669.31 730.89 1705.93 730.89S1745.3 663.57 1784.44 663.57S1825.15 668.92 1862.96 668.92S1905.42 677.74 1941.48 677.74S1985.04 737.81 2020 737.81S2059.93 676.62 2098.52 676.62L2020 985 L-100 985 Z"></animate>
            <animateTransform attributeName="transform" type="translate" dur="10.256410256410255s"
                              begin="-5.128205128205128s" repeatCount="indefinite" values="0;10;0" calcMode="spline"
                              keySplines="0.3 0 0.7 1;0.3 0 0.7 1"></animateTransform>
        </path>
        <path
            d="M-100 733.35C-55.54 734.57 -55.69 780.51 -18.46 780.51S22.54 750.88 63.08 750.88S105.8 778.49 144.62 778.49S189.48 718.65 226.15 718.65S268.18 791.07 307.69 791.07S351.58 724.18 389.23 724.18S430.25 792.12 470.77 792.12S513.83 727.63 552.31 727.63S594.17 787.72 633.85 787.72S674.9 716.79 715.38 716.79S756.38 713.06 796.92 713.06S839.96 737.07 878.46 737.07S919.85 796.67 960 796.67S1005.09 788.34 1041.54 788.34S1086.42 775.35 1123.08 775.35S1167.56 731.43 1204.62 731.43S1247.35 721.51 1286.15 721.51S1330.92 747.01 1367.69 747.01S1412.05 789.08 1449.23 789.08S1492.12 746.12 1530.77 746.12S1573.1 803.15 1612.31 803.15S1653.23 748.42 1693.85 748.42S1736.15 804.1 1775.38 804.1S1817.73 717.63 1856.92 717.63S1900.51 803.8 1938.46 803.8S1983.58 728.86 2020 728.86S2061.5 799 2101.54 799L2020 985 L-100 985 Z"
            fill="#176a70" stroke-width="0">
            <animate attributeName="d" dur="7.692307692307692s" repeatCount="indefinite"
                     values="M-100 733.35C-55.54 734.57 -55.69 780.51 -18.46 780.51S22.54 750.88 63.08 750.88S105.8 778.49 144.62 778.49S189.48 718.65 226.15 718.65S268.18 791.07 307.69 791.07S351.58 724.18 389.23 724.18S430.25 792.12 470.77 792.12S513.83 727.63 552.31 727.63S594.17 787.72 633.85 787.72S674.9 716.79 715.38 716.79S756.38 713.06 796.92 713.06S839.96 737.07 878.46 737.07S919.85 796.67 960 796.67S1005.09 788.34 1041.54 788.34S1086.42 775.35 1123.08 775.35S1167.56 731.43 1204.62 731.43S1247.35 721.51 1286.15 721.51S1330.92 747.01 1367.69 747.01S1412.05 789.08 1449.23 789.08S1492.12 746.12 1530.77 746.12S1573.1 803.15 1612.31 803.15S1653.23 748.42 1693.85 748.42S1736.15 804.1 1775.38 804.1S1817.73 717.63 1856.92 717.63S1900.51 803.8 1938.46 803.8S1983.58 728.86 2020 728.86S2061.5 799 2101.54 799L2020 985 L-100 985 Z;M-100 737.34C-57.2 708.76 -57.92 770.63 -18.46 770.63S25.16 713.73 63.08 713.73S106.88 763.56 144.62 763.56S186.18 735.11 226.15 735.11S270.77 794.76 307.69 794.76S350.45 723.14 389.23 723.14S431.02 766.73 470.77 766.73S513.43 803.77 552.31 803.77S595.4 771.3 633.85 771.3S678.97 792.43 715.38 792.43S756.87 768.59 796.92 768.59S841.39 720.38 878.46 720.38S921.48 766.34 960 766.34S1001.41 738.18 1041.54 738.18S1083.7 771.35 1123.08 771.35S1166.92 750.66 1204.62 750.66S1246.94 785.04 1286.15 785.04S1331.07 735.59 1367.69 735.59S1410.99 764.88 1449.23 764.88S1492.3 742.43 1530.77 742.43S1575.16 776.08 1612.31 776.08S1654.39 718.11 1693.85 718.11S1736.18 801.44 1775.38 801.44S1818.75 747.87 1856.92 747.87S1899.43 727 1938.46 727S1983.27 713.64 2020 713.64S2065.06 784.24 2101.54 784.24L2020 985 L-100 985 Z;M-100 733.35C-55.54 734.57 -55.69 780.51 -18.46 780.51S22.54 750.88 63.08 750.88S105.8 778.49 144.62 778.49S189.48 718.65 226.15 718.65S268.18 791.07 307.69 791.07S351.58 724.18 389.23 724.18S430.25 792.12 470.77 792.12S513.83 727.63 552.31 727.63S594.17 787.72 633.85 787.72S674.9 716.79 715.38 716.79S756.38 713.06 796.92 713.06S839.96 737.07 878.46 737.07S919.85 796.67 960 796.67S1005.09 788.34 1041.54 788.34S1086.42 775.35 1123.08 775.35S1167.56 731.43 1204.62 731.43S1247.35 721.51 1286.15 721.51S1330.92 747.01 1367.69 747.01S1412.05 789.08 1449.23 789.08S1492.12 746.12 1530.77 746.12S1573.1 803.15 1612.31 803.15S1653.23 748.42 1693.85 748.42S1736.15 804.1 1775.38 804.1S1817.73 717.63 1856.92 717.63S1900.51 803.8 1938.46 803.8S1983.58 728.86 2020 728.86S2061.5 799 2101.54 799L2020 985 L-100 985 Z"></animate>
            <animateTransform attributeName="transform" type="translate" dur="7.692307692307692s"
                              begin="-4.8076923076923075s" repeatCount="indefinite" values="0;10;0" calcMode="spline"
                              keySplines="0.3 0 0.7 1;0.3 0 0.7 1"></animateTransform>
        </path>
        <path
            d="M-100 776.83C-57.04 755.98 -53.64 851.42 -15.2 851.42S30.8 839.6 69.6 839.6S112.37 849.5 154.4 849.5S198.12 765.21 239.2 765.21S285.58 849.13 324 849.13S369.52 851.55 408.8 851.55S454.96 858.75 493.6 858.75S537.32 770.94 578.4 770.94S624.68 847.39 663.2 847.39S705.73 769.81 748 769.81S791.07 864.24 832.8 864.24S878.29 790.72 917.6 790.72S962.5 781.26 1002.4 781.26S1046.57 777.94 1087.2 777.94S1129.63 834.09 1172 834.09S1214.56 790.49 1256.8 790.49S1302.23 788.18 1341.6 788.18S1388 791.06 1426.4 791.06S1470.69 851.22 1511.2 851.22S1556.64 768.53 1596 768.53S1639.47 844.13 1680.8 844.13S1724.96 859.02 1765.6 859.02S1810.22 830.31 1850.4 830.31S1895.29 754.39 1935.2 754.39S1981.69 844.26 2020 844.26S2064.72 760.19 2104.8 760.19L2020 985 L-100 985 Z"
            fill="#0a7474" stroke-width="0">
            <animate attributeName="d" dur="5.128205128205128s" repeatCount="indefinite"
                     values="M-100 776.83C-57.04 755.98 -53.64 851.42 -15.2 851.42S30.8 839.6 69.6 839.6S112.37 849.5 154.4 849.5S198.12 765.21 239.2 765.21S285.58 849.13 324 849.13S369.52 851.55 408.8 851.55S454.96 858.75 493.6 858.75S537.32 770.94 578.4 770.94S624.68 847.39 663.2 847.39S705.73 769.81 748 769.81S791.07 864.24 832.8 864.24S878.29 790.72 917.6 790.72S962.5 781.26 1002.4 781.26S1046.57 777.94 1087.2 777.94S1129.63 834.09 1172 834.09S1214.56 790.49 1256.8 790.49S1302.23 788.18 1341.6 788.18S1388 791.06 1426.4 791.06S1470.69 851.22 1511.2 851.22S1556.64 768.53 1596 768.53S1639.47 844.13 1680.8 844.13S1724.96 859.02 1765.6 859.02S1810.22 830.31 1850.4 830.31S1895.29 754.39 1935.2 754.39S1981.69 844.26 2020 844.26S2064.72 760.19 2104.8 760.19L2020 985 L-100 985 Z;M-100 765.55C-55.22 766.54 -55.64 847.99 -15.2 847.99S27.63 779.59 69.6 779.59S114.57 844.34 154.4 844.34S197.75 766.51 239.2 766.51S283.81 847.48 324 847.48S370.56 777.1 408.8 777.1S453.93 831.08 493.6 831.08S539.86 768.67 578.4 768.67S625.16 845.91 663.2 845.91S707.46 772.22 748 772.22S792.4 853.55 832.8 853.55S878.33 763.13 917.6 763.13S960.69 775.4 1002.4 775.4S1046.19 762.83 1087.2 762.83S1132.71 832.26 1172 832.26S1217.62 759.92 1256.8 759.92S1303.56 838.67 1341.6 838.67S1385.62 792.82 1426.4 792.82S1472.38 843.87 1511.2 843.87S1557.96 754.32 1596 754.32S1638.58 790.74 1680.8 790.74S1723.6 789.21 1765.6 789.21S1811.74 850.82 1850.4 850.82S1893.25 767.56 1935.2 767.56S1978.21 863.29 2020 863.29S2066.7 797.27 2104.8 797.27L2020 985 L-100 985 Z;M-100 776.83C-57.04 755.98 -53.64 851.42 -15.2 851.42S30.8 839.6 69.6 839.6S112.37 849.5 154.4 849.5S198.12 765.21 239.2 765.21S285.58 849.13 324 849.13S369.52 851.55 408.8 851.55S454.96 858.75 493.6 858.75S537.32 770.94 578.4 770.94S624.68 847.39 663.2 847.39S705.73 769.81 748 769.81S791.07 864.24 832.8 864.24S878.29 790.72 917.6 790.72S962.5 781.26 1002.4 781.26S1046.57 777.94 1087.2 777.94S1129.63 834.09 1172 834.09S1214.56 790.49 1256.8 790.49S1302.23 788.18 1341.6 788.18S1388 791.06 1426.4 791.06S1470.69 851.22 1511.2 851.22S1556.64 768.53 1596 768.53S1639.47 844.13 1680.8 844.13S1724.96 859.02 1765.6 859.02S1810.22 830.31 1850.4 830.31S1895.29 754.39 1935.2 754.39S1981.69 844.26 2020 844.26S2064.72 760.19 2104.8 760.19L2020 985 L-100 985 Z"></animate>
            <animateTransform attributeName="transform" type="translate" dur="5.128205128205128s"
                              begin="-3.846153846153846s" repeatCount="indefinite" values="0;10;0" calcMode="spline"
                              keySplines="0.3 0 0.7 1;0.3 0 0.7 1"></animateTransform>
        </path>
        <path
            d="M-100 813.35C-54.48 816.86 -54.13 884.48 -11.67 884.48S33.72 843.68 76.67 843.68S121.15 878.51 165 878.51S210.07 842.89 253.33 842.89S299.4 908.73 341.67 908.73S388.7 839.86 430 839.86S478.05 884.15 518.33 884.15S562.56 802.27 606.67 802.27S651.48 918.82 695 918.82S739.69 814.38 783.33 814.38S827.69 913.46 871.67 913.46S916.55 837.03 960 837.03S1004.56 902.58 1048.33 902.58S1094.54 824.35 1136.67 824.35S1185.11 836.26 1225 836.26S1269.43 832.76 1313.33 832.76S1358.41 838.07 1401.67 838.07S1447.79 807.62 1490 807.62S1536.77 884.37 1578.33 884.37S1622.78 823.77 1666.67 823.77S1711.29 889.49 1755 889.49S1799.6 815.64 1843.33 815.64S1888.6 889.73 1931.67 889.73S1979.12 825.69 2020 825.69S2064.58 807.26 2108.33 807.26L2020 985 L-100 985 Z"
            fill="#037f75" stroke-width="0">
            <animate attributeName="d" dur="2.564102564102564s" repeatCount="indefinite"
                     values="M-100 813.35C-54.48 816.86 -54.13 884.48 -11.67 884.48S33.72 843.68 76.67 843.68S121.15 878.51 165 878.51S210.07 842.89 253.33 842.89S299.4 908.73 341.67 908.73S388.7 839.86 430 839.86S478.05 884.15 518.33 884.15S562.56 802.27 606.67 802.27S651.48 918.82 695 918.82S739.69 814.38 783.33 814.38S827.69 913.46 871.67 913.46S916.55 837.03 960 837.03S1004.56 902.58 1048.33 902.58S1094.54 824.35 1136.67 824.35S1185.11 836.26 1225 836.26S1269.43 832.76 1313.33 832.76S1358.41 838.07 1401.67 838.07S1447.79 807.62 1490 807.62S1536.77 884.37 1578.33 884.37S1622.78 823.77 1666.67 823.77S1711.29 889.49 1755 889.49S1799.6 815.64 1843.33 815.64S1888.6 889.73 1931.67 889.73S1979.12 825.69 2020 825.69S2064.58 807.26 2108.33 807.26L2020 985 L-100 985 Z;M-100 838.65C-54.78 803.2 -55.47 916.34 -11.67 916.34S33.93 814.03 76.67 814.03S122.86 899.29 165 899.29S213.49 910.82 253.33 910.82S300.72 913.2 341.67 913.2S387.2 886.6 430 886.6S476.65 885.47 518.33 885.47S566.55 879.49 606.67 879.49S652.7 812.01 695 812.01S742.04 834.17 783.33 834.17S827.51 910.06 871.67 910.06S916.23 916.11 960 916.11S1007.06 894.49 1048.33 894.49S1094.78 828.22 1136.67 828.22S1184.87 835.04 1225 835.04S1271.67 805.82 1313.33 805.82S1360.25 885.84 1401.67 885.84S1448.94 824.72 1490 824.72S1536.59 898.9 1578.33 898.9S1623.26 807.5 1666.67 807.5S1714.39 914.75 1755 914.75S1800.68 832.82 1843.33 832.82S1889.5 893.9 1931.67 893.9S1975.86 805.76 2020 805.76S2065.9 891.89 2108.33 891.89L2020 985 L-100 985 Z;M-100 813.35C-54.48 816.86 -54.13 884.48 -11.67 884.48S33.72 843.68 76.67 843.68S121.15 878.51 165 878.51S210.07 842.89 253.33 842.89S299.4 908.73 341.67 908.73S388.7 839.86 430 839.86S478.05 884.15 518.33 884.15S562.56 802.27 606.67 802.27S651.48 918.82 695 918.82S739.69 814.38 783.33 814.38S827.69 913.46 871.67 913.46S916.55 837.03 960 837.03S1004.56 902.58 1048.33 902.58S1094.54 824.35 1136.67 824.35S1185.11 836.26 1225 836.26S1269.43 832.76 1313.33 832.76S1358.41 838.07 1401.67 838.07S1447.79 807.62 1490 807.62S1536.77 884.37 1578.33 884.37S1622.78 823.77 1666.67 823.77S1711.29 889.49 1755 889.49S1799.6 815.64 1843.33 815.64S1888.6 889.73 1931.67 889.73S1979.12 825.69 2020 825.69S2064.58 807.26 2108.33 807.26L2020 985 L-100 985 Z"></animate>
            <animateTransform attributeName="transform" type="translate" dur="2.564102564102564s"
                              begin="-2.2435897435897436s" repeatCount="indefinite" values="0;10;0" calcMode="spline"
                              keySplines="0.3 0 0.7 1;0.3 0 0.7 1"></animateTransform>
        </path>
    </g>
</svg>
